<svg width="50" height="69" viewBox="0 0 50 69" fill="none" xmlns="http://www.w3.org/2000/svg">
<path d="M6.25 68.7911C4.53125 68.7911 3.06042 68.1501 1.8375 66.8682C0.614583 65.5863 0.00208333 64.0434 0 62.2396V29.4819C0 27.6802 0.612499 26.1384 1.8375 24.8565C3.0625 23.5746 4.53333 22.9326 6.25 22.9304H9.375V16.3788C9.375 11.8474 10.899 7.98523 13.9469 4.79245C16.9948 1.59967 20.6792 0.00218608 25 2.23602e-06C29.3208 -0.00218161 33.0063 1.5953 36.0563 4.79245C39.1063 7.9896 40.6292 11.8517 40.625 16.3788V22.9304H43.75C45.4688 22.9304 46.9406 23.5724 48.1656 24.8565C49.3906 26.1406 50.0021 27.6824 50 29.4819V62.2396C50 64.0412 49.3885 65.5841 48.1656 66.8682C46.9427 68.1523 45.4708 68.7933 43.75 68.7911H6.25ZM29.4156 50.4894C30.6385 49.2053 31.25 47.6624 31.25 45.8607C31.25 44.0591 30.6385 42.5173 29.4156 41.2354C28.1927 39.9534 26.7208 39.3114 25 39.3092C23.2792 39.307 21.8083 39.9491 20.5875 41.2354C19.3667 42.5216 18.7542 44.0634 18.75 45.8607C18.7458 47.658 19.3583 49.2009 20.5875 50.4894C21.8167 51.7779 23.2875 52.4188 25 52.4123C26.7125 52.4057 28.1844 51.7648 29.4156 50.4894ZM15.625 22.9304H34.375V16.3788C34.375 13.649 33.4635 11.3287 31.6406 9.41783C29.8177 7.50697 27.6042 6.55154 25 6.55154C22.3958 6.55154 20.1823 7.50697 18.3594 9.41783C16.5365 11.3287 15.625 13.649 15.625 16.3788V22.9304Z" fill="black"/>
</svg>
