<svg width="17" height="22" viewBox="0 0 17 22" fill="none" xmlns="http://www.w3.org/2000/svg">
<path d="M2.0113 21.1186C1.45819 21.1186 0.984866 20.9219 0.591322 20.5283C0.197778 20.1348 0.000670433 19.6611 0 19.1073V9.05085C0 8.49774 0.197107 8.02442 0.591322 7.63087C0.985537 7.23733 1.45886 7.04022 2.0113 7.03955H3.01695V5.02825C3.01695 3.6371 3.50737 2.45144 4.48821 1.47127C5.46906 0.491093 6.65472 0.00067112 8.0452 6.8645e-07C9.43568 -0.000669747 10.6217 0.489752 11.6032 1.47127C12.5847 2.45278 13.0748 3.63844 13.0734 5.02825V7.03955H14.0791C14.6322 7.03955 15.1059 7.23666 15.5001 7.63087C15.8943 8.02509 16.0911 8.49841 16.0904 9.05085V19.1073C16.0904 19.6605 15.8936 20.1341 15.5001 20.5283C15.1065 20.9225 14.6329 21.1193 14.0791 21.1186H2.0113ZM9.46618 15.5001C9.85972 15.1059 10.0565 14.6322 10.0565 14.0791C10.0565 13.526 9.85972 13.0527 9.46618 12.6591C9.07264 12.2656 8.59898 12.0685 8.0452 12.0678C7.49142 12.0671 7.01809 12.2642 6.62522 12.6591C6.23235 13.054 6.03524 13.5273 6.0339 14.0791C6.03256 14.6309 6.22966 15.1045 6.62522 15.5001C7.02078 15.8956 7.4941 16.0924 8.0452 16.0904C8.59629 16.0884 9.06995 15.8916 9.46618 15.5001ZM5.02825 7.03955H11.0621V5.02825C11.0621 4.19021 10.7688 3.47787 10.1822 2.89124C9.59557 2.30461 8.88324 2.0113 8.0452 2.0113C7.20716 2.0113 6.49482 2.30461 5.90819 2.89124C5.32156 3.47787 5.02825 4.19021 5.02825 5.02825V7.03955Z" fill="#A2734A"/>
</svg>
