<svg width="28" height="28" viewBox="0 0 28 28" fill="none" xmlns="http://www.w3.org/2000/svg">
<path d="M3.41667 13.7521C3.41667 15.0333 3.65869 16.2793 4.14271 17.4899C4.62674 18.7006 5.38126 19.8178 6.40626 20.8417L6.83334 21.2688V18.7917C6.83334 18.3076 6.99734 17.9022 7.32534 17.5753C7.65334 17.2485 8.05878 17.0845 8.54167 17.0833C9.02456 17.0822 9.43058 17.2462 9.75972 17.5753C10.0889 17.9045 10.2523 18.3099 10.25 18.7917V25.625C10.25 26.109 10.086 26.515 9.75801 26.843C9.43001 27.171 9.02456 27.3345 8.54167 27.3333H1.70834C1.22431 27.3333 0.818867 27.1693 0.492006 26.8413C0.165145 26.5133 0.00114478 26.1079 5.8908e-06 25.625C-0.001133 25.1421 0.162867 24.7367 0.492006 24.4087C0.821145 24.0807 1.22659 23.9167 1.70834 23.9167H4.69792L4.01459 23.3188C2.53403 22.009 1.4948 20.5142 0.896881 18.8344C0.298964 17.1545 5.8908e-06 15.4604 5.8908e-06 13.7521C5.8908e-06 11.0757 0.683339 8.64815 2.05001 6.46946C3.41667 4.29076 5.25313 2.61831 7.55938 1.45208C7.95799 1.22431 8.37824 1.21007 8.82013 1.40937C9.26202 1.60868 9.55358 1.93611 9.6948 2.39167C9.83716 2.81875 9.83033 3.24583 9.6743 3.67292C9.51827 4.1 9.24038 4.42743 8.84063 4.65521C7.18924 5.56632 5.87269 6.8265 4.89096 8.43575C3.90924 10.045 3.41781 11.8171 3.41667 13.7521ZM23.9167 13.5813C23.9167 12.3 23.6747 11.0546 23.1906 9.84512C22.7066 8.63562 21.9521 7.51781 20.9271 6.49167L20.5 6.06458V8.54167C20.5 9.02569 20.336 9.43171 20.008 9.75971C19.68 10.0877 19.2746 10.2511 18.7917 10.25C18.3088 10.2489 17.9033 10.0849 17.5753 9.758C17.2473 9.43114 17.0833 9.02569 17.0833 8.54167V1.70833C17.0833 1.22431 17.2473 0.818861 17.5753 0.492C17.9033 0.165139 18.3088 0.00113889 18.7917 0H25.625C26.109 0 26.515 0.164 26.843 0.492C27.171 0.82 27.3345 1.22544 27.3333 1.70833C27.3322 2.19122 27.1682 2.59724 26.8413 2.92637C26.5145 3.25551 26.109 3.41894 25.625 3.41667H22.6354L23.3188 4.01458C24.7139 5.40972 25.7321 6.92615 26.3733 8.56387C27.0145 10.2016 27.3345 11.8741 27.3333 13.5813C27.3333 16.2576 26.65 18.6852 25.2833 20.8639C23.9167 23.0426 22.0802 24.715 19.774 25.8813C19.3754 26.109 18.9557 26.1233 18.5149 25.924C18.0742 25.7247 17.782 25.3972 17.6385 24.9417C17.4962 24.5146 17.5036 24.0875 17.6608 23.6604C17.8179 23.2333 18.0952 22.9059 18.4927 22.6781C20.1441 21.767 21.4612 20.5074 22.4441 18.8993C23.427 17.2912 23.9178 15.5185 23.9167 13.5813Z" fill="black"/>
</svg>
