<svg width="29" height="29" viewBox="0 0 29 29" fill="none" xmlns="http://www.w3.org/2000/svg">
<path d="M13.843 3.95352L9.88379 0H6.58731L10.5408 3.95352H13.843ZM22.407 3.95352L18.4535 0H15.157L19.1105 3.95352H22.407ZM23.7268 0L27.6803 3.95352H29V0H23.7268ZM23.7268 9.22676H18.4535L22.407 5.27324H19.1105L15.157 9.22676H9.88379L13.8373 5.27324H10.5408L6.58731 9.22676H1.31973L5.27324 5.27324H0V26.3662C0 27.8162 1.18379 29 2.63379 29H26.3605C27.8162 29 28.9943 27.8162 28.9943 26.3662V5.27324H27.6746L23.7268 9.22676ZM1.31973 0H0V3.95352H5.27324L1.31973 0Z" fill="#D1D1D1"/>
</svg>
