<svg width="28" height="28" viewBox="0 0 28 28" fill="none" xmlns="http://www.w3.org/2000/svg">
<path d="M16.9583 9.25C16.5215 9.25 16.1556 9.102 15.8607 8.806C15.5657 8.51 15.4177 8.14411 15.4167 7.70833V1.54167C15.4167 1.10486 15.5647 0.738972 15.8607 0.444C16.1567 0.149028 16.5226 0.00102778 16.9583 0H26.2083C26.6451 0 27.0115 0.148 27.3075 0.444C27.6035 0.74 27.751 1.10589 27.75 1.54167V7.70833C27.75 8.14514 27.602 8.51154 27.306 8.80754C27.01 9.10354 26.6441 9.25103 26.2083 9.25H16.9583ZM1.54167 15.4167C1.10486 15.4167 0.738972 15.2687 0.444 14.9727C0.149028 14.6767 0.00102778 14.3108 0 13.875V1.54167C0 1.10486 0.148 0.738972 0.444 0.444C0.74 0.149028 1.10589 0.00102778 1.54167 0H10.7917C11.2285 0 11.5949 0.148 11.8909 0.444C12.1869 0.74 12.3344 1.10589 12.3333 1.54167V13.875C12.3333 14.3118 12.1853 14.6782 11.8893 14.9742C11.5933 15.2702 11.2274 15.4177 10.7917 15.4167H1.54167ZM16.9583 27.75C16.5215 27.75 16.1556 27.602 15.8607 27.306C15.5657 27.01 15.4177 26.6441 15.4167 26.2083V13.875C15.4167 13.4382 15.5647 13.0723 15.8607 12.7773C16.1567 12.4824 16.5226 12.3344 16.9583 12.3333H26.2083C26.6451 12.3333 27.0115 12.4813 27.3075 12.7773C27.6035 13.0733 27.751 13.4392 27.75 13.875V26.2083C27.75 26.6451 27.602 27.0115 27.306 27.3075C27.01 27.6035 26.6441 27.751 26.2083 27.75H16.9583ZM1.54167 27.75C1.10486 27.75 0.738972 27.602 0.444 27.306C0.149028 27.01 0.00102778 26.6441 0 26.2083V20.0417C0 19.6049 0.148 19.239 0.444 18.944C0.74 18.649 1.10589 18.501 1.54167 18.5H10.7917C11.2285 18.5 11.5949 18.648 11.8909 18.944C12.1869 19.24 12.3344 19.6059 12.3333 20.0417V26.2083C12.3333 26.6451 12.1853 27.0115 11.8893 27.3075C11.5933 27.6035 11.2274 27.751 10.7917 27.75H1.54167Z" fill="#D1D1D1"/>
</svg>
