<svg width="28" height="28" viewBox="0 0 28 28" fill="none" xmlns="http://www.w3.org/2000/svg">
<path d="M3.08333 27.75C2.23542 27.75 1.50981 27.4483 0.9065 26.845C0.303195 26.2417 0.00102778 25.5156 0 24.6667V3.08333C0 2.23542 0.302167 1.50981 0.9065 0.9065C1.51083 0.303195 2.23644 0.00102778 3.08333 0H12.3333C12.7701 0 13.1365 0.148 13.4325 0.444C13.7285 0.74 13.876 1.10589 13.875 1.54167C13.874 1.97744 13.726 2.34385 13.431 2.64087C13.136 2.9379 12.7701 3.08539 12.3333 3.08333H3.08333V24.6667H12.3333C12.7701 24.6667 13.1365 24.8147 13.4325 25.1107C13.7285 25.4067 13.876 25.7726 13.875 26.2083C13.874 26.6441 13.726 27.0105 13.431 27.3075C13.136 27.6046 12.7701 27.7521 12.3333 27.75H3.08333ZM21.8531 15.4167H10.7917C10.3549 15.4167 9.98897 15.2687 9.694 14.9727C9.39903 14.6767 9.25103 14.3108 9.25 13.875C9.24897 13.4392 9.39697 13.0733 9.694 12.7773C9.99103 12.4813 10.3569 12.3333 10.7917 12.3333H21.8531L18.9625 9.44271C18.6799 9.16007 18.5385 8.81319 18.5385 8.40208C18.5385 7.99097 18.6799 7.63125 18.9625 7.32292C19.2451 7.01458 19.6049 6.85374 20.0417 6.84037C20.4785 6.82701 20.851 6.97501 21.1594 7.28437L26.6708 12.7958C26.9792 13.1042 27.1333 13.4639 27.1333 13.875C27.1333 14.2861 26.9792 14.6458 26.6708 14.9542L21.1594 20.4656C20.851 20.774 20.4852 20.922 20.0617 20.9096C19.6383 20.8973 19.2719 20.7364 18.9625 20.4271C18.6799 20.1187 18.5452 19.7529 18.5586 19.3294C18.5719 18.906 18.7194 18.5524 19.001 18.2687L21.8531 15.4167Z" fill="#D1D1D1"/>
</svg>
