<svg width="25" height="19" viewBox="0 0 25 19" fill="none" xmlns="http://www.w3.org/2000/svg">
<path d="M16.9167 15.7084V18.125H0V15.7084C0 15.7084 0 10.875 8.45833 10.875C16.9167 10.875 16.9167 15.7084 16.9167 15.7084ZM12.6875 4.22921C12.6875 3.39276 12.4395 2.5751 11.9748 1.87961C11.5101 1.18413 10.8495 0.642066 10.0768 0.321971C9.30399 0.00187521 8.45364 -0.0818764 7.63326 0.0813069C6.81289 0.24449 6.05932 0.647279 5.46786 1.23874C4.8764 1.8302 4.47361 2.58376 4.31043 3.40414C4.14725 4.22452 4.231 5.07486 4.55109 5.84764C4.87119 6.62042 5.41325 7.28093 6.10873 7.74564C6.80422 8.21034 7.62188 8.45838 8.45833 8.45838C9.57998 8.45838 10.6557 8.01281 11.4488 7.21968C12.2419 6.42656 12.6875 5.35086 12.6875 4.22921ZM16.8442 10.875C17.587 11.4499 18.1948 12.1806 18.6249 13.0156C19.0549 13.8507 19.2967 14.7698 19.3333 15.7084V18.125H24.1667V15.7084C24.1667 15.7084 24.1667 11.3221 16.8442 10.875ZM15.7083 4.44624e-05C14.8767 -0.00382358 14.0635 0.24477 13.3763 0.712961C14.1102 1.73852 14.5049 2.96806 14.5049 4.22921C14.5049 5.49037 14.1102 6.7199 13.3763 7.74546C14.0635 8.21365 14.8767 8.46225 15.7083 8.45838C16.83 8.45838 17.9057 8.01281 18.6988 7.21968C19.4919 6.42656 19.9375 5.35086 19.9375 4.22921C19.9375 3.10757 19.4919 2.03186 18.6988 1.23874C17.9057 0.445616 16.83 4.44624e-05 15.7083 4.44624e-05Z" fill="#D1D1D1"/>
</svg>
